<svg xmlns="http://www.w3.org/2000/svg" aria-hidden="true" role="img" class="iconify iconify--logos" width="32"
     height="32" preserveAspectRatio="xMidYMid meet" viewBox="0 0 322.59 386.96">
    <defs>
        <style>.cls-1{fill:#fff;}</style>
    </defs>
    <g id="Layer_1-2">
        <path class="cls-1"
              d="m241.07,214.11c-3.21-3.58-7.85-5.82-13.01-5.82-9.61,0-17.42,7.82-17.42,17.46s7.81,17.45,17.42,17.45c8.06,0,14.87-5.47,16.87-12.91.39-1.44.6-2.97.6-4.53,0-4.47-1.68-8.55-4.46-11.64Zm-13,22.13c-5.78,0-10.48-4.7-10.48-10.49s4.7-10.49,10.48-10.49c1.76,0,3.43.44,4.9,1.22,3.33,1.76,5.6,5.26,5.6,9.28,0,.32-.01.64-.05.97-.49,5.34-5,9.53-10.46,9.53Z"/>
        <path class="cls-1"
              d="m241.07,256.54c-3.21-3.58-7.85-5.82-13.01-5.82-9.61,0-17.42,7.82-17.42,17.46s7.81,17.45,17.42,17.45c8.06,0,14.87-5.47,16.87-12.91.39-1.44.6-2.97.6-4.53,0-4.47-1.68-8.55-4.46-11.64Z"/>
        <path class="cls-1"
              d="m241.9,300.12c-3.2-4.14-8.22-6.81-13.83-6.81-9.61,0-17.42,7.82-17.42,17.46s7.81,17.45,17.42,17.45c7.57,0,14.03-4.83,16.46-11.58.66-1.84,1.01-3.8,1.01-5.87,0-4.01-1.35-7.7-3.64-10.65Zm-13.82,21.14c-5.78,0-10.48-4.7-10.48-10.49s4.7-10.49,10.48-10.49,10.51,4.7,10.51,10.49-4.72,10.49-10.51,10.49Z"/>
        <path class="cls-1"
              d="m87.64,56.47v248.61c-3.79-2.53-8.07-4.5-12.68-5.86l.02.07c-1.55-.44-3.15-.83-4.77-1.14-6.06-1.18-12.54-1.37-19.19-.44-2.69.36-5.39.92-8.11,1.67-2.18.58-4.36,1.32-6.53,2.17C13.64,310.45-.68,330.39.02,349.67c.02.37.04.74.06,1.1.14,2.16.49,4.32,1.01,6.44.37,1.43.82,2.84,1.37,4.25,3.68,9.43,11.04,16.57,20.38,20.87h.01c3.1,1.43,6.43,2.55,9.92,3.33.39.08.77.17,1.18.25.33.06.66.13.99.19.45.08.91.15,1.37.23.41.05.8.12,1.22.17.8.11,1.61.19,2.42.27,2.04.17,4.11.24,6.22.2.83-.02,1.68-.06,2.53-.11,2.17-.14,4.36-.39,6.57-.76,4.25-.73,8.54-1.9,12.77-3.55,4.42-1.73,8.55-3.88,12.28-6.37.5-.33,1-.67,1.49-1.01,3.74-2.66,7.09-5.64,9.99-8.87.46-.5.91-1.03,1.34-1.54.26-.32.52-.63.78-.94.45-.57.91-1.16,1.32-1.75.75-1.01,1.45-2.06,2.13-3.12.42-.66.81-1.34,1.19-2.02.76-1.36,1.47-2.73,2.09-4.13.18-.39.35-.79.52-1.19.24-.62.49-1.25.73-1.88.01-.02.02-.06.04-.11.13-.36.24-.7.36-1.06.12-.36.24-.72.35-1.06.33-1.08.61-2.17.85-3.26.08-.37.16-.73.21-1.08.26-1.35.44-2.7.56-4.03v-.1s.01-.06.01-.06c0-.06.01-.12.02-.18.06-.73.1-1.45.11-2.19,0-.36.01-.73.01-1.1,0-.73-.04-1.46-.08-2.18-.01-.19-.05-.39-.06-.58v-203.45l201.64-48.64v117.42l-64.86,16.07,3.86,16.17,60.99-15.1v25.97c-21.86,5.39-43.71,10.79-65.57,16.18,1.3,5.41,2.59,10.83,3.89,16.24l61.68-15.26v25.95l-64.03,15.86,2.62,16.52,61.41-15.2v25.94h16.66V0c-41.5,9.98-198.13,47.62-234.94,56.47Z"/>
    </g>
</svg>
